<svg width="128" height="24" viewBox="0 0 128 24" fill="none" xmlns="http://www.w3.org/2000/svg">
<path d="M86.8167 19.5391C86.251 19.7252 86.0625 19.5019 85.987 19.3158C85.9116 19.0925 86.0248 18.7948 86.3642 18.6459C86.3642 18.6459 105.07 9.416 105.334 9.26713C105.598 9.11826 105.674 9.08104 105.787 8.96939C105.862 8.89495 105.938 8.7833 105.938 8.63443C105.938 8.41113 105.824 8.26226 105.56 8.18782C105.56 8.18782 94.4726 5.69426 94.3595 5.65704C94.0955 5.58261 93.9069 5.50817 93.9446 5.24765C93.9446 5.136 94.02 5.02435 94.284 4.98713H126.605C127.283 4.98713 127.811 5.09878 127.887 5.61982C128 6.17809 127.472 6.47582 126.303 6.88522L86.8167 19.5391ZM85.9116 8.52278L84.7048 15.4824C84.5162 16.6362 83.9882 17.5666 82.9322 18.2737C81.9517 18.9064 81.1974 18.9809 79.9906 18.9809H75.3518C74.2581 18.9809 73.4284 18.9809 72.561 18.2737C71.9199 17.7155 71.6559 17.0828 71.6559 16.3012C71.6559 16.0035 71.6936 15.7802 71.7313 15.3336L72.9758 8.56C73.4284 7.18295 73.6547 6.36417 74.7484 5.69426C75.8044 5.02435 76.4832 4.94991 77.7655 4.94991H82.442C83.4602 4.94991 84.3276 4.94991 85.1196 5.65704C85.7608 6.25252 85.987 6.88522 85.987 7.704C85.987 7.96452 85.9493 8.22504 85.9116 8.52278ZM82.7437 7.74122C82.2911 7.33182 81.8763 7.33182 81.2351 7.33182H77.954C76.5586 7.33182 75.7289 7.9273 75.5027 9.19269L74.5221 14.8125C74.4844 14.9986 74.4844 15.1103 74.4844 15.2963C74.4844 15.6685 74.5975 15.9663 74.937 16.2268C75.3895 16.599 75.7666 16.599 76.3324 16.599H79.802C80.4431 16.599 80.7448 16.599 81.2728 16.2268C81.8385 15.8546 82.0648 15.4824 82.1403 14.8497L83.1208 9.19269C83.1585 9.00661 83.1585 8.89495 83.1585 8.70887C83.1585 8.33669 83.0454 8.00174 82.7437 7.74122ZM12.1815 7.33182H6.26046C5.61933 7.33182 5.27991 7.29461 4.75192 7.62956C3.95993 8.03895 3.77136 8.82052 3.77136 9.60208C3.77136 10.6442 4.75192 10.7186 5.69476 10.7186H9.20212C11.0878 10.7186 12.1438 11.8351 12.1438 13.5099C12.1438 14.2543 11.9175 14.9986 11.8044 15.7057C11.6535 16.599 11.1255 17.455 10.3712 18.0504C9.4284 18.8692 8.71185 19.0181 7.42958 19.0181H0L0.452563 16.599H7.16559C8.82499 16.599 9.31526 15.5941 9.31526 14.2543C9.31526 13.361 8.71185 13.1377 7.80672 13.1377H4.52563C2.67767 13.1377 1.01827 12.319 1.01827 10.4953C1.01827 9.71374 1.24455 8.89495 1.3954 8.11339C1.58397 7.10852 2.30053 6.14087 3.24337 5.54539C4.07307 5.02435 4.94048 4.94991 5.95875 4.94991H12.6341L12.1815 7.33182ZM27.4932 8.59722C27.0784 10.9047 26.6635 13.175 26.2864 15.4824C25.9093 17.5294 24.0613 18.9809 21.723 18.9809H15.3872L14.482 23.968H11.8421L14.5197 8.67165C14.9346 6.32695 16.4054 4.94991 19.1208 4.94991H23.9104C25.947 4.94991 27.6064 5.61982 27.6064 7.66678C27.6064 7.96452 27.5687 8.29948 27.4932 8.59722ZM19.6111 7.33182C18.178 7.33182 17.3105 7.96452 17.0843 9.22991L15.9151 16.0035C15.8397 16.4129 16.1414 16.599 16.5186 16.599H21.459C22.7413 16.599 23.5333 15.929 23.7596 14.8125L24.7778 9.22991C24.8156 9.04382 24.8156 8.93217 24.8156 8.74608C24.8156 8.37391 24.7024 8.03895 24.4007 7.77843C23.9481 7.36904 23.5333 7.36904 22.8922 7.36904L19.6111 7.33182ZM57.023 15.3708C57.4378 13.0633 57.8527 10.793 58.2298 8.48556C58.607 6.43861 60.4549 4.98713 62.7932 4.98713H69.1291L70.0342 0H72.6741L69.9965 15.2963C69.5816 17.641 68.1108 19.0181 65.3954 19.0181H60.6058C58.5692 19.0181 56.9098 18.3482 56.9098 16.3012C56.9476 16.0035 56.9853 15.6685 57.023 15.3708ZM64.9051 16.6362C66.3382 16.6362 67.2057 16.0035 67.4319 14.7381L68.6011 8.00174C68.6765 7.59235 68.3748 7.40626 67.9976 7.40626H63.0572C61.7749 7.40626 60.9829 8.07617 60.7566 9.19269L59.7384 14.7753C59.7006 14.9614 59.7007 15.073 59.7007 15.2591C59.7007 15.6313 59.8138 15.9663 60.1155 16.2268C60.5681 16.6362 60.9829 16.6362 61.624 16.6362H64.9051ZM55.5144 13.1377C55.703 12.1701 56.3819 8.52278 56.3819 7.55513C56.3819 5.65704 54.911 4.98713 53.0253 4.98713H48.4243C45.7843 4.98713 44.0872 6.10365 43.6724 8.56L42.5032 15.1847C42.4278 15.5569 42.4278 15.929 42.4278 16.3012C42.4278 17.0828 42.6541 17.6783 43.2952 18.1993C44.2004 18.9436 45.1055 18.9809 46.2746 18.9809H54.4962L54.911 16.5617H47.1797C46.5763 16.5617 46.1237 16.6362 45.6712 16.2268C45.294 15.929 45.2563 15.7057 45.2563 15.2591C45.2563 14.9242 45.5203 13.4727 45.558 13.1005H55.5144V13.1377ZM46.1615 9.11826C46.3877 7.74122 47.4814 7.33182 48.8768 7.33182H51.7431C52.6105 7.33182 53.591 7.59235 53.591 8.52278C53.591 8.67165 53.4402 9.75095 53.327 10.4581C53.2516 10.9791 53.0631 11.0163 52.6482 11.0163H45.8975L46.1615 9.11826ZM41.0701 13.1377C41.2587 12.1701 41.9375 8.52278 41.9375 7.55513C41.9375 5.65704 40.4667 4.98713 38.581 4.98713H33.98C31.34 4.98713 29.6429 6.10365 29.2281 8.56L28.0589 15.1847C27.9835 15.5569 27.9835 15.929 27.9835 16.3012C27.9835 17.0828 28.2098 17.6783 28.8509 18.1993C29.756 18.9436 30.6612 18.9809 31.8303 18.9809H40.0519L40.4667 16.5617H32.7354C32.132 16.5617 31.6794 16.6362 31.2269 16.2268C30.8497 15.929 30.812 15.7057 30.812 15.2591C30.812 14.9242 31.076 13.4727 31.1137 13.1005H41.0701V13.1377ZM31.7171 9.11826C31.9434 7.74122 33.0371 7.33182 34.4325 7.33182H37.2988C38.1662 7.33182 39.1467 7.59235 39.1467 8.52278C39.1467 8.67165 38.9959 9.75095 38.8827 10.4581C38.8073 10.9791 38.6187 11.0163 38.2039 11.0163H31.4532L31.7171 9.11826ZM87.8727 4.28L87.7219 4.01948C87.6464 3.90783 87.571 3.75896 87.4956 3.68452C87.4202 3.61009 87.3824 3.61009 87.2316 3.61009H87.1562V4.28H86.8167V2.64243H87.6464C87.9859 2.64243 88.1744 2.82852 88.1744 3.08904C88.1744 3.34956 87.9859 3.49843 87.7219 3.53565C87.8727 3.57287 87.9104 3.61009 88.0613 3.90783L88.2499 4.24278H87.8727V4.28ZM87.5333 3.34956C87.7596 3.34956 87.835 3.23791 87.835 3.12626C87.835 2.97739 87.7219 2.90296 87.4956 2.90296H87.1939V3.34956H87.5333ZM86.2888 3.46122C86.2888 4.13113 86.8545 4.68939 87.5333 4.68939C88.2121 4.68939 88.7778 4.13113 88.7778 3.46122C88.7778 2.7913 88.2121 2.23304 87.4956 2.23304C86.8545 2.19583 86.2888 2.75409 86.2888 3.46122ZM89.1173 3.46122C89.1173 4.31722 88.4384 4.98713 87.5333 5.02435C86.6659 5.02435 85.9493 4.31722 85.987 3.49843C85.987 2.64243 86.7036 1.97252 87.571 1.97252C88.4384 1.89809 89.1173 2.60522 89.1173 3.46122Z" fill="white"/>
</svg>
